G04 Layer_Color=2752767*
%FSTAX24Y24*%
%MOIN*%
G70*
G01*
G75*
%ADD21C,0.0020*%
%ADD22C,0.0027*%
D21*
X02692Y02392D02*
Y02408D01*
X02708D01*
Y02392D01*
X02692D01*
X02592D02*
Y02408D01*
X02608D01*
Y02392D01*
X02592D01*
X02492D02*
Y02408D01*
X02508D01*
Y02392D01*
X02492D01*
X024248Y022873D02*
X024168Y023033D01*
X024328D01*
X024248Y022873D01*
X027752D02*
X027672Y023033D01*
X027832D01*
X027752Y022873D01*
X02692Y02592D02*
Y02608D01*
X02708D01*
Y02592D01*
X02692D01*
X02592D02*
Y02608D01*
X02608D01*
Y02592D01*
X02592D01*
X02492D02*
Y02608D01*
X02508D01*
Y02592D01*
X02492D01*
X02692Y01892D02*
Y01908D01*
X02708D01*
Y01892D01*
X02692D01*
X02592D02*
Y01908D01*
X02608D01*
Y01892D01*
X02592D01*
X02492D02*
Y01908D01*
X02508D01*
Y01892D01*
X02492D01*
X02692Y02092D02*
Y02108D01*
X02708D01*
Y02092D01*
X02692D01*
X02592D02*
Y02108D01*
X02608D01*
Y02092D01*
X02592D01*
X02492D02*
Y02108D01*
X02508D01*
Y02092D01*
X02492D01*
D22*
X025096Y02D02*
G03*
X025096Y02I-00008J0D01*
G01*
X02608D02*
G03*
X02608Y02I-00008J0D01*
G01*
X027064D02*
G03*
X027064Y02I-00008J0D01*
G01*
M02*
